<svg width="36" height="59" viewBox="0 0 36 59" fill="none" xmlns="http://www.w3.org/2000/svg">
<path d="M14.1548 58.784V48.288H21.1308V58.784H14.1548ZM14.1548 10.528V0.415997H21.1308V10.528H14.1548ZM18.4428 52.96C15.3281 52.96 12.5121 52.4053 9.99475 51.296C7.52008 50.1867 5.45075 48.6293 3.78675 46.624C2.12275 44.576 1.01342 42.2293 0.45875 39.584L7.17875 37.856L7.88275 37.984C8.43742 39.5627 9.22675 40.9707 10.2508 42.208C11.3174 43.4027 12.5761 44.3413 14.0268 45.024C15.4774 45.7067 17.0348 46.048 18.6988 46.048C20.4054 46.048 21.8988 45.792 23.1788 45.28C24.4588 44.7253 25.4614 43.9787 26.1868 43.04C26.9548 42.0587 27.3388 40.9493 27.3388 39.712C27.3388 38.176 26.8481 36.96 25.8668 36.064C24.9281 35.1253 23.5201 34.4 21.6428 33.888L13.5788 31.776C9.78142 30.752 6.88008 29.1093 4.87475 26.848C2.91208 24.5867 1.93075 21.9627 1.93075 18.976C1.93075 16.4587 2.57075 14.2613 3.85075 12.384C5.13075 10.464 6.92275 8.97066 9.22675 7.904C11.5308 6.79467 14.1974 6.24 17.2268 6.24C20.1281 6.24 22.7308 6.77333 25.0348 7.84C27.3814 8.864 29.3228 10.3147 30.8588 12.192C32.3948 14.0693 33.3974 16.3093 33.8668 18.912L27.5308 20.32L26.8268 20.192C26.3148 17.9733 25.2054 16.2453 23.4988 15.008C21.7921 13.7707 19.6801 13.152 17.1628 13.152C14.8588 13.152 13.0241 13.7067 11.6588 14.816C10.2934 15.8827 9.61075 17.2693 9.61075 18.976C9.61075 20.384 10.1014 21.5787 11.0828 22.56C12.1068 23.5413 13.6001 24.288 15.5628 24.8L23.6268 26.912C27.3388 27.8933 30.1548 29.4507 32.0748 31.584C34.0374 33.6747 35.0188 36.2773 35.0188 39.392C35.0188 42.1227 34.3361 44.512 32.9708 46.56C31.6054 48.5653 29.6641 50.144 27.1468 51.296C24.6721 52.4053 21.7708 52.96 18.4428 52.96Z" fill="white"/>
</svg>
