<svg width="38" height="46" viewBox="0 0 38 46" fill="none" xmlns="http://www.w3.org/2000/svg">
<path d="M6.0725 46V0.303997H20.6645C26.5525 0.303997 30.8405 1.49866 33.5285 3.888C36.2592 6.27733 37.6245 9.56266 37.6245 13.744C37.6245 16.2187 37.0698 18.544 35.9605 20.72C34.8512 22.896 32.9952 24.6453 30.3925 25.968C27.8325 27.2907 24.3338 27.952 19.8965 27.952H15.7365V46H6.0725ZM0.9525 39.152V32.944H25.5925V39.152H0.9525ZM0.9525 27.952V20.016H19.7045V27.952H0.9525ZM18.9365 20.016C20.7712 20.016 22.3498 19.824 23.6725 19.44C24.9952 19.0133 26.0192 18.352 26.7445 17.456C27.4698 16.56 27.8325 15.4293 27.8325 14.064C27.8325 12.1013 27.2138 10.6507 25.9765 9.712C24.7392 8.73066 22.7978 8.24 20.1525 8.24H15.7365V20.016H18.9365Z" fill="white"/>
</svg>
