<svg width="20" height="20" viewBox="0 0 20 20" fill="none" xmlns="http://www.w3.org/2000/svg">
<path d="M17.8567 3.57153H2.14244C1.35346 3.57153 0.713867 4.21113 0.713867 5.0001V15.0001C0.713867 15.7891 1.35346 16.4287 2.14244 16.4287H17.8567C18.6457 16.4287 19.2853 15.7891 19.2853 15.0001V5.0001C19.2853 4.21113 18.6457 3.57153 17.8567 3.57153Z" stroke="white" stroke-linecap="round" stroke-linejoin="round"/>
<path d="M9.9993 12.1429C11.1828 12.1429 12.1422 11.1835 12.1422 10C12.1422 8.81657 11.1828 7.85718 9.9993 7.85718C8.81584 7.85718 7.85645 8.81657 7.85645 10C7.85645 11.1835 8.81584 12.1429 9.9993 12.1429Z" stroke="white" stroke-linecap="round" stroke-linejoin="round"/>
<path d="M4.28516 7.14307H4.99944" stroke="white" stroke-linecap="round" stroke-linejoin="round"/>
<path d="M15 12.8572H15.7143" stroke="white" stroke-linecap="round" stroke-linejoin="round"/>
</svg>
