<svg width="20" height="20" viewBox="0 0 20 20" fill="none" xmlns="http://www.w3.org/2000/svg">
<path d="M14.2853 2.5H2.14244C1.35346 2.5 0.713867 3.13959 0.713867 3.92857V12.5C0.713867 13.289 1.35346 13.9286 2.14244 13.9286H14.2853C15.0743 13.9286 15.7139 13.289 15.7139 12.5V3.92857C15.7139 3.13959 15.0743 2.5 14.2853 2.5Z" stroke="white" stroke-linecap="round" stroke-linejoin="round"/>
<path d="M8.21415 10.3572C9.39761 10.3572 10.357 9.39786 10.357 8.21439C10.357 7.03092 9.39761 6.07153 8.21415 6.07153C7.03068 6.07153 6.07129 7.03092 6.07129 8.21439C6.07129 9.39786 7.03068 10.3572 8.21415 10.3572Z" stroke="white" stroke-linecap="round" stroke-linejoin="round"/>
<path d="M5 17.4999H17.8571C18.236 17.4999 18.5994 17.3494 18.8673 17.0815C19.1352 16.8136 19.2857 16.4502 19.2857 16.0713V8.92847" stroke="white" stroke-linecap="round" stroke-linejoin="round"/>
</svg>
